<?xml version="1.0" encoding="utf-8"?>
<!-- Generator: Adobe Illustrator 19.0.0, SVG Export Plug-In . SVG Version: 6.00 Build 0)  -->
<svg version="1.1" id="Camada_1" xmlns="http://www.w3.org/2000/svg" xmlns:xlink="http://www.w3.org/1999/xlink" x="0px" y="0px"
	 viewBox="0 0 23 16" style="enable-background:new 0 0 23 16;" xml:space="preserve">
<style type="text/css">
	.st0{fill:#FFFFFF;}
</style>
<path class="st0" d="M20.7,0C21.9,0,23,1,23,2.2v11.6c0,1.2-1,2.2-2.3,2.2H2.3C1.1,16,0,15,0,13.8V2.2C0,1,1,0,2.3,0
	C2.3,0,20.7,0,20.7,0z M21.4,8.7H1.5v5.1c0,0.4,0.3,0.8,0.8,0.8h18.3c0.4,0,0.8-0.3,0.8-0.8L21.4,8.7L21.4,8.7z M7.6,11.6V13H3.1
	v-1.4H7.6z M21.4,5.8H1.5v1.4h19.8V5.8z M20.7,1.4H2.3c-0.4,0-0.8,0.3-0.8,0.8v2.2h19.8V2.2C21.4,1.7,21.1,1.4,20.7,1.4z"/>
</svg>
