<?xml version="1.0" encoding="utf-8"?>
<!-- Generator: Adobe Illustrator 19.0.0, SVG Export Plug-In . SVG Version: 6.00 Build 0)  -->
<svg version="1.1" id="Camada_1" xmlns="http://www.w3.org/2000/svg" xmlns:xlink="http://www.w3.org/1999/xlink" x="0px" y="0px"
	 viewBox="0 0 26 26" style="enable-background:new 0 0 26 26;" xml:space="preserve">
<path id="XMLID_12_" d="M18.7,1.6c-2.3,0-4.4,1.1-5.7,2.9c-1.3-1.8-3.4-2.9-5.7-2.9C4,1.5,0.6,3.8,0.6,8.1c0,4.2,4.3,8.4,9.7,13.7
	c0.8,0.8,1.6,1.5,2.4,2.3l0.3,0.3l0.3-0.3c0.8-0.8,1.6-1.6,2.4-2.3c5.4-5.3,9.7-9.5,9.7-13.7C25.4,3.8,22,1.6,18.7,1.6z M23.6,8.1
	c0,3.5-4,7.4-9.1,12.4c-0.5,0.5-1,1-1.5,1.5c-0.5-0.5-1-1-1.5-1.4c-4.9-4.8-9.2-8.9-9.2-12.4c0-3.8,3.2-4.8,4.9-4.8
	c1.4,0,3.9,0.5,5.4,4.2L13,8.4l0.4-0.9c1.5-3.8,4.3-4.2,5.4-4.2C21.1,3.3,23.6,4.8,23.6,8.1z"/>
</svg>
