<?xml version="1.0" encoding="utf-8"?>
<!-- Generator: Adobe Illustrator 19.0.0, SVG Export Plug-In . SVG Version: 6.00 Build 0)  -->
<svg version="1.1" id="Camada_1" xmlns="http://www.w3.org/2000/svg" xmlns:xlink="http://www.w3.org/1999/xlink" x="0px" y="0px"
	 viewBox="1 2.6 27.3 23.4" style="enable-background:new 1 2.6 27.3 23.4;" xml:space="preserve">
<g transform="translate(0 -36.002)">
	<path d="M27.8,42.2c-0.4-0.5-0.9-0.7-1.5-0.7H5.5l-0.2-1.3c-0.1-0.9-0.9-1.7-1.9-1.7H1.8c-0.5,0-0.9,0.4-0.9,0.8s0.4,0.9,0.8,0.9
		c0,0,0,0,0.1,0h1.6c0.1,0,0.2,0.1,0.2,0.2l2.3,16.5c0.1,0.9,0.9,1.6,1.9,1.7h0.9c-0.5,1.3,0.2,2.8,1.6,3.3c1.3,0.5,2.8-0.2,3.3-1.6
		c0.2-0.6,0.2-1.2,0-1.7h4.6c-0.5,1.3,0.2,2.8,1.6,3.3c1.3,0.5,2.8-0.2,3.3-1.6c0.2-0.6,0.2-1.2,0-1.7H25c0.5,0,0.8-0.4,0.8-0.9
		c0-0.4-0.4-0.8-0.8-0.8H8c-0.1,0-0.2-0.1-0.2-0.2l-0.2-1.5h16.8c0.9,0,1.7-0.6,1.9-1.5l2.1-9.8C28.3,43.2,28.1,42.6,27.8,42.2
		L27.8,42.2z M12,59.3c0,0.5-0.4,0.9-0.9,0.9s-0.9-0.4-0.9-0.9s0.4-0.9,0.9-0.9C11.6,58.5,12,58.9,12,59.3z M21.4,59.3
		c0,0.5-0.4,0.9-0.9,0.9s-0.9-0.4-0.9-0.9s0.4-0.9,0.9-0.9C21,58.5,21.4,58.9,21.4,59.3z M26.5,43.4l-2.1,9.8c0,0.1-0.1,0.2-0.2,0.2
		h-17L5.8,43.2h20.6C26.4,43.1,26.5,43.2,26.5,43.4L26.5,43.4L26.5,43.4z"/>
</g>
</svg>
