<?xml version="1.0" encoding="utf-8"?>
<!-- Generator: Adobe Illustrator 19.0.0, SVG Export Plug-In . SVG Version: 6.00 Build 0)  -->
<svg version="1.1" id="Camada_1" xmlns="http://www.w3.org/2000/svg" xmlns:xlink="http://www.w3.org/1999/xlink" x="0px" y="0px"
	 viewBox="237 -106 500 228" style="enable-background:new 237 -106 500 228;" xml:space="preserve">
<g id="XMLID_4025_">
	<g id="XMLID_4114_">
		<path id="XMLID_4125_" d="M257.8,1.5c-0.2-0.2-16.6-1.1-17-1.4c-0.3-0.3-1.7-2.3-1.9-2.8s-1.5-11-1.4-11.4c0.2-1,0.3-2.7,0.4-5.1
			s0.3-4.2,0.4-5.5c0.1-0.3,0.3-4.8,0.3-5.3c0,0-1.2-29.5-0.9-34.4s-0.3-12.6-0.2-13.3c0.1-0.7-0.6-11-0.2-14.4
			c0-0.2-0.1-0.5-0.3-0.9c-0.2-0.4,1.6-9.5,1.6-9.7c0.1,0,0.3-0.2,0.8-0.5c0,0,7.6-1.5,8.4-1.4c0.7,0,2.9,0.2,3.6,0.3
			c0.8,0,1.4,0.1,1.8,0.2c1.3,0.4,9.4,0.5,9.9,0.3c0.5-0.2,0.9-0.2,1.1-0.1h1.4c0.5,0,1.2,0,2.1-0.1c0.9,0,1.6-0.1,2-0.1
			c7.2,0,11.3-0.1,12.1-0.3c0.9-0.3,2.5-0.4,4.7-0.3c2.2,0.1,3.9,0.1,5,0c0.5-0.2,1.6-0.2,3.2-0.1c0,0,3.2,0.1,4-0.2
			c0.8-0.3,2.8-0.4,3.3-0.2c0,0,3.4,0.5,3.7,0.7c0.1,0.1,0.3,0.3,0.6,0.6c0.3,0.3,2.5,17.9,2.2,19.1v3.7c-0.2,0.4-2,4.3-2,4.4
			c0,0.2-11.5,0.1-11.5,0.1c-1.6,0.2-3.7,0.3-6.4,0.3c-2.6,0-14.4-0.8-15.7-0.8c-0.2-0.4-7,0.6-8.4,0.2c0,0,0,3.2,0.3,5.5
			c0.3,2.2,0.3,3.8,0.3,4.6c-0.1,0.7,0,3,0.1,6.9c0,0.4,1,18.5,1,18.5c0,0.3,0.5,9.8,0.3,11.3c-0.2,1.5-0.1,2.5,0.2,3.1
			c0.2,0.2,0.8,0.3,1.9,0.3c0.2-0.1,1.3,0,3.4,0.3c0.2,0,18.7-0.9,20.3-1.2c1.5-0.4,2.7-0.5,3.4-0.4c0.6,0.1,9.9-0.1,9.9-0.1
			c0.9,0.6,4.5,4.7,4.5,4.8c0.3,0.2,0.1,6.3,0.1,6.6c0,0.3,0.1,2.3,0.1,2.7l-0.1,1.5c0,0.2,0.9,7.7,0.5,8.9V-1c0,0-0.7,2.4-1,2.5h-2
			c-0.4-0.5-8.7-0.2-9.3-0.3c-1.3-0.2-3.8-0.1-7.7,0.1"/>
		<path id="XMLID_4122_" d="M315.9-101.9c0.4-0.3,3.9-1.8,4.7-1.9c3-0.3,8.9-0.9,9.4-0.8c0,0,6.8-0.6,9.9-0.9
			c3.1-0.3,23.9-0.6,24.4-0.5c0.5,0.2,1.4,0.3,2.6,0.2c1.2,0,5.1-0.1,5.1-0.1c0.2,0.1,13.4,0.6,14.2,0.5c0.8-0.1,11.2,0.9,11.2,0.9
			l2.4,0.3c0.7,0.1,1.4,0.1,2.1,0c0.3-0.1,0.9,0.2,1.6,0.6c1.1,0.6,1.9,2.4,1.9,3c0,0.4-0.1,0.7-0.1,1.1c0,1.1,0,1.9-0.1,2.3
			c-0.2,0.5-0.5,5-0.5,5.1c-0.2,0.7-0.4,1.8-0.6,3.2c-0.3,1.4-1,10-0.8,10.6c0.2,0.6-0.6,6.1-0.5,6.9c0,0.9-0.4,26.5-0.4,30
			c0,0.5,1.2,16.2,1.5,19.7c0.2,1.1,0.3,3.1,0.3,5.9s-0.1,6.5-0.8,8.2c-0.7,1.7-0.5,3.5-0.5,3.5c0,0.7-0.3,0.6-0.8,2.6
			c-0.6,2-1,3-1.5,3.1l-0.4,0.1L394.1,1c-0.3-0.2-0.6-0.2-0.9-0.1s-0.7,0-1.1-0.1c-0.1-0.1-10.2-0.3-10.7-0.5
			c-0.5-0.1-0.9-0.2-1.3-0.4c-2.5-0.7-4.6-1.2-4.7-1.2L375.3-2c-0.1-0.5-0.2-0.8-0.3-0.8c0-5.8,0.3-7.7,0.8-8.8
			c0.3-1.5,0.6-3.7,0.6-6.7c0.1-3,0-5.3-0.1-6.7c-3.2,0.3-8.4-0.1-15.6-1.1c-0.7-0.1-2.2,0-4.5,0.3c-2.3,0.3-8.3,0-13.3-1
			c-0.2,0.6-0.1,1.4,0.1,2.3s0.3,1.6,0.3,2.2c-0.2,0.4-0.2,1.7-0.1,3.9c0.1,2.2,0.2,10.2,0.2,10.2c-0.2,0.6-0.3,1.8-0.3,3.5
			s-0.3,2.9-0.8,3.5c-0.6,0.6-3.1,0.5-3.3,0.5l-0.5,0.1c-0.3,0-0.7,0-1.1,0.1s-0.8,0.2-1,0.4c0,0-4.3-0.1-5.5,0.1
			c-1.2,0.1-3.3,0.2-3.3,0.2h-0.3c-0.1,0.2-0.3,0.2-0.5,0.1c0,0-8.2,0.6-8.7,0C317.3,0,317-2.5,317-7.4c0-0.3,0-1.2-0.1-2.9
			c0-1.6-0.1-2.6-0.1-2.9c-0.1-0.1-0.2-0.6-0.3-1.5c-0.1-0.9-0.2-1.6-0.4-1.9c-0.1-0.5-0.1-1.1-0.1-1.6s0-1.2,0.1-2.1
			c0.1-0.8,0.1-1.3,0.1-1.5c0-0.5-0.1-1.8-0.3-3.7c-0.2-1.9-0.2-3.4-0.1-4.4c0.2-0.7,0.2-2,0.2-3.9s-0.1-3-0.1-3.5
			c0-0.4,0.1-1.1,0.4-2.1c0.3-1,0.4-1.6,0.4-1.8c0.2-0.5,0.5-10.1,0.6-10.6c0,0,0.9-6.8,0.9-7.1c0.6-7.9,0.1-14.7,0.1-14.7
			c-0.1-0.4-0.1-0.8-0.1-1.3C318.3-75,315.5-101.6,315.9-101.9z M345.9-54c0,1,0.1,1.6,0.4,1.6c0.3,0.4,1.3,0.6,2.9,0.8
			c1.6,0.1,2.5,0.3,2.7,0.3c1.3,0.4,3.4,0.6,6.4,0.8c3,0.1,5.1,0.3,6.5,0.6c0.6,0.1,1.5,0.1,2.7,0c1.2-0.1,7.2,0.4,7.8-1.1
			c0.3-0.5-0.2-4.7-0.1-5.1c0.5-2.7,0.8-5.1,0.8-7c0-0.3-0.4-10.9-0.9-15.1c-1.6-0.2-4.9-0.4-5.6-0.3c0,0-5.4,0-6.2-0.1
			c-0.8-0.2-7.4-0.3-9.4,0.3c-0.6-0.5-4,0.1-6.4,0.3c0,0.2-0.1,0.9-0.2,2.3c-0.1,1.3-0.2,2.4-0.3,3.2c0,0.8,0,6.5-0.3,10.8
			C346.5-57.5,346.2-54.9,345.9-54z"/>
		<path id="XMLID_4120_" d="M485-12.4c0.3,1.8-0.4,7.5-0.4,12L484,0.3c-1.7-0.5-14.3,0.3-15.3,0.4s-2.2,0.1-3.6,0.1s-2.5,0-3.3,0.1
			c-0.7,0-7.5-0.4-9.2-0.3c-1.7,0.1-4.5,0.3-6.6-0.1c-2.1-0.3-8.5,0-11.7-0.2c-3.3-0.2-13.8-0.8-13.8-0.8l-5,0.1
			c0,0-1.1-0.5-2.6-1.1c0,0,0.2-1,0-1.1l0.1-0.5c0,0,0.2-3.7,0-4c-0.2-0.5-0.1-1.1,0.1-1.9s-0.9-7.6-0.6-8.9
			c0.3-1.3-0.1-6.7-0.1-6.9c0-0.6,0.1-1.2,0.4-1.6c0.3-0.4,16.2,0.5,16.6,0.9h2.8h0.4c0.9-0.3,2.9-0.3,4-0.1c1,0.2,3.3,0,4.9,0.1
			c1.6,0.1,2.7,0.2,3.4,0.1c1.2-0.2,3.4-0.2,6.5-0.1s5.3,0.1,6.4-0.1c0.2-0.3,0.3-0.7,0.4-1.4c0.3-0.6,0.4-2.3,0.3-5.1
			c-0.2-2.7-0.8-8.9-0.6-9l-0.5-0.4c-2.3,0.8-5.4,0.5-5.6,0.7c-0.4-0.2-1.4-0.3-2.9-0.2c-1.5,0-8.5,0.6-8.5,0.6h-1
			c0,0-3.7,0.1-4,0.1c-0.3,0-15.1,0.8-18.9-0.8c-1.9-4.3-4.6-9.7-4.6-14.8c0-2.9-0.1-4.9-0.4-6l0.1-2.6c-0.3-1.9-0.4-4.5-0.4-7.8
			c0.3-1.6,0.3-2.6,0.3-2.9c-0.5-3.4-0.3-17.2-0.1-24.3c0.1-2.5,6-5.6,7.5-4.9l1.9-0.1c0.1,0,12.8-0.2,13.3-0.3
			c0.2,0.4,2-0.3,2.7-0.1l1.7-0.1c0.4-0.1,0.9-0.1,1.4,0s1.3,0,1.3,0c3.1,0,8.5-0.6,9.8-0.6c1.4,0,2.7,0,4.1,0.1
			c1.4,0.1,14.7-0.2,15.7-0.5c1-0.3,9.8,1.2,9.8,1.2s-0.8,8.6-0.9,8.9c0,0.1-0.7,5.9-0.6,6.3c-0.5,0.4-0.6,3.3-0.6,3.7
			c0,0.1-0.8,3.2-0.8,4.2c-6.3,0-10.5,0.2-12.5,0.7c-0.5,0.2-1.2,0.2-2.2,0.1c-0.9-0.1-7.1,0.6-7,0.5c0.1-0.1-4.5,0-4.5,0
			c0.5,0-8.2,0.4-8.7,0.1c0.1-0.1-5.4,0.6-5.5,0.5c-0.1-0.1-0.2-0.2-0.3-0.2s-0.2,0.1-0.4,0.3c-0.2,0.2-0.5,0.3-0.8,0.4
			c0,1.3,0.1,2.7,0.3,4.4c0.2,1.6,0.3,2.7,0.3,3.3c0,0.5,0,3.4,0,4c0.2,0.3,0.3,1.6,0.3,4l0.4,0.4c0.9-0.1,1.6,0,2.2,0.3
			c1.2,0.4,20.6-1.8,20.9-1.9l1-0.3c0.2-0.1,2.8,0.2,5.8-0.1c9.6-0.8,11.5,1.4,11.8,1.7l1.1,2.5l1.5,4.8c0,0.4,0.1,0.8,0.3,1.2
			s0.8,3.5,0.8,3.5c-0.1,0.5,0,1.1,0.3,1.9c0.3,0.8,0.4,1.4,0.4,2c0,4.5,1.3,13.9,1.3,16.9"/>
		<path id="XMLID_4115_" d="M511.1,1.5c-0.2-0.2-16.6-1.1-17-1.4c-0.3-0.3-1.7-2.3-1.9-2.8c-0.2-0.5-1.5-11-1.4-11.4
			c0.2-1,0.3-2.7,0.4-5.1s0.3-4.2,0.4-5.5c0.1-0.3,0.3-4.8,0.3-5.3c0,0-1.2-29.5-0.9-34.4c0.3-4.9-0.3-12.6-0.2-13.3
			c0.1-0.7-0.6-11-0.2-14.4c0-0.2-0.1-0.5-0.3-0.9c-0.2-0.4,1.6-9.5,1.6-9.7c0.1,0,0.3-0.2,0.8-0.5c0,0,7.6-1.5,8.4-1.4
			c0.7,0,2.9,0.2,3.6,0.3c0.8,0,1.4,0.1,1.8,0.2c1.3,0.4,9.4,0.5,9.9,0.3c0.5-0.2,0.9-0.2,1.1-0.1h1.4c0.5,0,1.2,0,2.1-0.1
			c0.9,0,1.6-0.1,2-0.1c7.2,0,11.3-0.1,12.1-0.3c0.9-0.3,2.5-0.4,4.7-0.3c2.2,0.1,3.9,0.1,5,0c0.5-0.2,1.6-0.2,3.2-0.1
			c0,0,3.2,0.1,4-0.2s2.8-0.4,3.3-0.2c0,0,3.4,0.5,3.7,0.7c0.1,0.1,0.3,0.3,0.6,0.6c0.3,0.3,2.5,17.9,2.2,19.1v3.7
			c-0.2,0.4-2,4.3-2,4.4c0,0.2-11.5,0.1-11.5,0.1c-1.6,0.2-3.7,0.3-6.4,0.3c-2.6,0-14.4-0.8-15.7-0.8c-0.2-0.4-7,0.6-8.4,0.2
			c0,0,0,3.2,0.3,5.5c0.3,2.2,0.3,3.8,0.3,4.6c-0.1,0.7,0,3,0.1,6.9c0,0.4,1,18.5,1,18.5c0,0.3,0.5,9.8,0.3,11.3s-0.1,2.5,0.2,3.1
			c0.2,0.2,0.8,0.3,1.9,0.3c0.2-0.1,1.3,0,3.4,0.3c0.2,0,18.7-0.9,20.3-1.2c1.5-0.4,2.7-0.5,3.4-0.4c0.6,0.1,9.9-0.1,9.9-0.1
			c0.9,0.6,4.5,4.7,4.5,4.8c0.3,0.2,0.1,6.3,0.1,6.6c0,0.3,0.1,2.3,0.1,2.7l-0.1,1.5c0,0.2,0.9,7.7,0.5,8.9V-1c0,0-0.7,2.4-1,2.5h-2
			c-0.4-0.5-8.7-0.2-9.3-0.3c-1.3-0.2-3.8-0.1-7.7,0.1"/>
		<path id="XMLID_4127_" d="M656.2-74.5c0,0.5,0,0.9-0.1,1.3c0,0-0.5,6.8,0.1,14.7c0,0.4,0.9,7.1,0.9,7.1c0.2,0.5,0.5,10.1,0.6,10.6
			c0,0.2,0.1,0.8,0.4,1.8s0.4,1.7,0.4,2.1c0,0.5,0,1.6-0.1,3.5c0,1.9,0,3.2,0.2,3.9c0.2,1,0.1,2.5-0.1,4.4s-0.3,3.2-0.3,3.7
			c0,0.2,0,0.7,0.1,1.5c0.1,0.8,0.1,1.5,0.1,2.1s0,1.1-0.1,1.6c-0.2,0.4-0.3,1-0.4,1.9c-0.1,0.9-0.2,1.4-0.3,1.5
			c0,0.3,0,1.2-0.1,2.9c0,1.6-0.1,2.6-0.1,2.9c0,4.8-0.4,7.4-1.1,7.7c-0.5,0.6-8.7,0-8.7,0c-0.3,0.1-0.4,0-0.5-0.1h-0.3
			c0,0-2.1-0.1-3.3-0.2S638,0.3,638,0.3c-0.3-0.2-0.6-0.3-1-0.4c-0.4-0.1-0.8-0.1-1.1-0.1l-0.5-0.1c-0.2-0.1-2.7,0.1-3.3-0.5
			c-0.5-0.6-0.8-1.8-0.8-3.5s-0.1-2.9-0.3-3.5c0,0,0.1-8,0.2-10.2c0.1-2.2,0.1-3.5-0.1-3.9c0-0.5,0.1-1.3,0.3-2.2
			c0.2-0.9,0.2-1.7,0.1-2.3c-4.9,0.9-11,1.2-13.3,1c-2.3-0.3-3.8-0.4-4.5-0.3c-7.1,1-12.3,1.4-15.6,1.1c-0.2,1.5-0.2,3.7-0.1,6.7
			c0.1,3,0.3,5.3,0.6,6.7c0.5,1.1,0.8,3.1,0.8,8.8c-0.1,0-0.2,0.3-0.3,0.8L599-0.9c0,0-2.2,0.6-4.7,1.2c-0.4,0.1-0.9,0.2-1.3,0.4
			c-0.5,0.1-10.6,0.4-10.7,0.5c-0.4,0.2-0.8,0.2-1.1,0.1c-0.3-0.1-0.6,0-0.9,0.1l-6.1,0.7L573.8,2c-0.4-0.1-0.9-1.1-1.5-3.1
			c-0.6-2-0.8-1.8-0.8-2.6c0,0,0.2-1.8-0.5-3.5s-0.8-5.3-0.8-8.2c0-2.8,0.1-4.8,0.3-5.9c0.3-3.6,1.5-19.2,1.5-19.7
			c0-3.5-0.5-29.1-0.4-30c0-0.9-0.7-6.3-0.5-6.9s-0.6-9.2-0.8-10.6c-0.3-1.4-0.5-2.5-0.6-3.2c0-0.1-0.3-4.6-0.5-5.1
			c-0.1-0.5-0.1-1.2-0.1-2.3c0-0.4,0-0.8-0.1-1.1c-0.1-0.6,0.8-2.4,1.9-3c0.7-0.4,1.3-0.7,1.6-0.6c0.7,0.1,1.4,0.1,2.1,0l2.4-0.3
			c0,0,10.5-1,11.2-0.9c0.8,0.1,14-0.4,14.2-0.5c0,0,3.9,0,5.1,0.1c1.2,0,2,0,2.6-0.2c0.5-0.1,21.2,0.2,24.4,0.5
			c3.1,0.3,9.9,0.9,9.9,0.9c0.5-0.1,6.4,0.5,9.4,0.8c0.9,0.1,4.3,1.5,4.7,1.9C659-101.6,656.2-75,656.2-74.5z M627.8-61.8
			c-0.2-4.3-0.2-10-0.3-10.8c0-0.8-0.1-1.8-0.3-3.2c-0.1-1.3-0.2-2.1-0.2-2.3c-2.4-0.2-5.8-0.7-6.4-0.3c-2-0.5-8.6-0.5-9.4-0.3
			s-6.2,0.1-6.2,0.1c-0.7-0.1-4,0.1-5.6,0.3c-0.5,4.2-0.9,14.8-0.9,15.1c0,1.9,0.3,4.2,0.8,7c0.1,0.4-0.5,4.6-0.1,5.1
			c0.6,1.5,6.6,1,7.8,1.1s2.1,0.1,2.7,0c1.4-0.3,3.5-0.5,6.5-0.6s5.1-0.4,6.4-0.8c0.3-0.1,1.2-0.2,2.7-0.3c1.6-0.1,2.5-0.4,2.9-0.8
			c0.3-0.1,0.4-0.6,0.4-1.6C628.3-54.9,628-57.5,627.8-61.8z"/>
	</g>
	<g id="XMLID_4028_">
		<path id="XMLID_4112_" d="M315.9,108.8c-0.3,1.1-0.5,6.2-0.5,11.5c-0.6,0.4-11.8,0.1-14.7,0.1c-2.8,0-5,0-6.4-0.1
			c-2-0.5-8.7,0.3-9.3,0c-0.7-0.2-1.9-0.3-3.6-0.3c-1.7,0-6.4,0.3-9.2,0.3c-1.5-0.3-7.6,0-7.5,0.1c-0.6,0.1-13.4,0.6-14,0.5
			c-0.6-0.1-8.8,0.4-9.3-1.3c-0.6-1.7-0.9-1.6-1-2.2c-0.2-0.5-0.2-1.9-0.1-3.9c0.1-2.1-0.7-16.2-0.8-18.2c-0.2-2.1-0.3-3.5-0.4-4.3
			c0.3-1.6,0-13.8-0.4-15.5c0.1-0.5,0.1-1.4-0.1-2.7c-0.1-1.4-0.1-2.5,0.1-3.4c0-0.2,0-1.6-0.1-4.1c-0.1-2.6-0.1-5-0.1-7.3
			s-0.4-5.7-0.4-5.9c-0.3-1.4-0.3-3.6-0.2-6.6c0.1-3.1,0.1-5.2-0.2-6.4c-0.2-0.8-0.2-3.2,0-7.1c0-0.5-0.1-2.5-0.4-5.8
			s-0.2-5.1,0.2-5.3V18c1-1.6,1.9-2.6,2.7-3.2c0.3-0.3,0.9-0.5,1.7-0.5c0.8-0.1,23.8-0.2,24,0.1c1-0.2,3.1-0.2,6.2-0.1
			s15.8,0.5,16.9,0.1l3.7,0.1c1.1-0.2,3.1-0.3,6-0.3c2.9,0,10.5-0.2,11.2-0.5c0.8-0.4,2-0.2,3.6,0.5s2,9.3,2,9.3
			c-0.1,0.5-0.2,1.1-0.4,2.1c-0.2,0.9-0.3,1.5-0.3,1.8c-0.1,0.3,0,2.8,0,2.9c0,0.3-1.3,9.8-1.3,10.1v0.4c-0.2,0.8-4.9,5.9-8.2,5.8
			c-3.1-0.1-6.7-0.1-9.3,0c-5.4,0.1-8.2,0-8.4-0.1c0,0-1.8,0-3.3,0h-2.4c0-0.6-17.3,0.2-17.3,0H264v0.7c0.3,1,0.3,8.3,0.3,14.3
			c-0.1,6-0.3,9.9-0.5,11.7c0,0.2,0.1,0.4,0.3,0.7c0.2,0.3,0.2,0.6,0.1,1c-0.2,0.5-0.2,3.1,0,7.8c0.2,4.8,0.3,8.3,0.3,8.7
			c0.1,0.1,4.5-0.8,6.8-0.5c2.3,0.3,3.8,0.4,4.6,0.3c2.4-0.4,4.7-0.4,7,0c1,0.1,1.8,0.1,2.4,0.1c0.6,0,1.4-0.1,2.6-0.3
			c1.2-0.1,2-0.2,2.4-0.2c0-0.6-0.4-4.5-0.7-8.1c0-0.3-12,0-12-0.3c-0.1-0.9,0-3.2,0.1-5.6c0-0.6,0.3-1.7,0.2-1.7
			c0,0-0.1-1.1-0.1-1.6c0.2-2.7,0.4-11.8,0.5-11.9c2-2.4,11.9-1.4,11.9-1.4s6.5,0,6.8,0.1c0.2,0.2,14.8,0.8,14.8,0.8
			c0.2,0,1.7,0.4,1.7,0.4c0.1,0.1,0.7,0.7,0.7,0.7c1.1,1.2,1.7,11.8,1.7,18.2s0.3,10.2,0.7,11.5C316.7,92.7,316,108.7,315.9,108.8z"
			/>
		<path id="XMLID_4105_" d="M483.2,83.3c0,1.5-0.1,2.9-0.1,4.2c0,1.4,0.2,5.8,0.2,5.8c-0.1,0.5-0.1,1.2-0.1,1.9s0.1,1.8,0.2,3.2
			c0.1,1.4,0.1,2.3,0.1,2.9l0.6,8.5c0,0,0.2,2.1,0.1,2.4c-0.1,0.3-0.1,0.7,0,1.2c0.3,0.7-0.3,2.7-1,4.5c-0.7,1.7-4,3.3-4,3.3
			c-0.2,0-3.8,0.2-4.1-0.1c-0.4-0.2-20.7-0.6-23.5-0.7c-2.8,0-5.3-0.1-5.3-0.1s-6.3,0.2-8.4,0s-22.8,0.2-23,0.3s-3.1,0.1-3.4,0
			c-0.1,0-5.5-2.5-5.4-5.1c0.2-2.6,0.1-4.3-0.1-5c-0.2-0.4-0.1-1.4,0.3-3.2c0.3-2-0.8-7.6-0.6-8c0.2-0.4,0.2-0.7,0-1.1
			c0-0.2,0.5-24,0.1-25.1c0-0.4,0-1.8,0.1-4.4c0.1-2.6,0.1-4,0.1-4.4c0.2-1.3,0.2-4.5,0.1-9.5c-0.1-5.1-0.1-8.5-0.1-9.2
			c0.1-0.5,0-2.1-0.3-4.8c0-0.3,0.1-1.6,0.2-4.1c0.1-2.5,0.1-4.1-0.2-4.8c0.4-0.8,1.6-15,2.2-15.7c0.6-0.7,4.9-0.8,6.6-1.3
			c1.2,0.6,13.9,0,14.8,0.3c1.4,0.5,32.1,1.3,32.1,1.3c0.1,0,0.3,0,0.8,0.1h1.7c4.1,0,17.8,0.6,18,0.8c0.3,0.2,0.8,2.8,0.9,4.2
			C482.9,23,483.2,81.9,483.2,83.3z M457.1,58.6c-0.1-1.3-0.1-2.2-0.1-2.5c0.2-0.8,0.3-5.1,0.3-11.9l-0.3-0.3c-3.6-0.2-5.9-0.5-7-1
			c-0.6,0-1.9,0-3.8,0.1c-2,0.1-3.2,0.1-3.7,0.1c-2.6-0.7-9.8-1.1-10,0c-0.2,0.9-0.3,2-0.3,3.3c-0.3,0.2-0.3,3.2-0.1,8
			c0.2,4.8,0.2,7.5,0.1,8.2c-0.1,0.5-0.1,1.5-0.1,3c0,1.6,0,3.3,0.1,5.1c0,1.9,0.1,2.9,0.1,3.1c0,0.7,0,3.9-0.1,7.5
			c-0.1,3.6-0.1,6-0.1,7.1c0.9,0,3.4-0.1,7.3-0.3c0.2,0,2,0.1,5.5,0.3s5.3,0.2,5.5,0l1.9,0.1c1.8,0,3.4-0.2,5-0.7v-0.7
			c0.3-0.4,0.3-2.4,0.1-6.1c-0.2-3.7-0.2-6.9-0.1-7.6c0.1-1.1,0.1-2.2,0.1-3.4s-0.1-2.6-0.2-4.2c-0.1-1.6-0.1-2.6-0.1-2.9
			C456.7,62.1,457.2,59.9,457.1,58.6z M443,119.7h0.1H443z"/>
		<path id="XMLID_4099_" d="M641.8,107.9c0.3,1.8-0.4,7.5-0.4,12l-0.6,0.7c-1.7-0.5-14.3,0.3-15.3,0.4c-1,0.1-2.2,0.1-3.6,0.1
			c-1.4,0-2.5,0-3.3,0.1c-0.7,0-7.5-0.4-9.2-0.3c-1.7,0.1-4.5,0.3-6.6-0.1c-2.1-0.3-8.5,0-11.7-0.2c-3.3-0.2-13.8-0.8-13.8-0.8
			l-5,0.1c0,0-1.1-0.5-2.6-1.1c0,0,0.2-1,0-1.1l0.1-0.5c0,0,0.2-3.7,0-4c-0.2-0.5-0.1-1.1,0.1-1.9c0.2-0.8-0.9-7.6-0.6-8.9
			c0.3-1.3-0.1-6.7-0.1-6.9c0-0.6,0.1-1.2,0.4-1.6s16.2,0.5,16.6,0.9h2.8h0.4c0.9-0.3,2.9-0.3,4-0.1c1,0.2,3.3,0,4.9,0.1
			c1.6,0.2,2.7,0.2,3.4,0.1c1.2-0.2,3.4-0.2,6.5-0.1c3.1,0.1,5.3,0.1,6.4-0.1c0.2-0.3,0.3-0.7,0.4-1.4c0.3-0.6,0.4-2.3,0.3-5.1
			c-0.2-2.7-0.8-8.9-0.6-9l-0.5-0.4c-2.3,0.8-5.4,0.5-5.6,0.7c-0.4-0.2-1.4-0.3-2.9-0.2c-1.5,0-8.5,0.6-8.5,0.6h-1
			c0,0-3.7,0.1-4,0.1c-0.3,0-15.1,0.8-18.9-0.8c-1.9-4.3-4.6-9.7-4.6-14.8c0-2.9-0.1-4.9-0.4-6l0.1-2.6c-0.3-1.9-0.4-4.5-0.4-7.8
			c0.3-1.6,0.3-2.6,0.3-2.9c-0.5-3.4-0.3-17.2-0.1-24.3c0.1-2.5,6-5.6,7.5-4.9l1.9-0.1c0.1,0,12.8-0.2,13.3-0.3
			c0.2,0.4,2-0.3,2.7-0.1l1.7-0.1c0.4-0.1,0.9-0.1,1.4,0s1.3,0,1.3,0c3.1,0,8.5-0.6,9.8-0.6c1.4,0,2.7,0,4.1,0.1s14.7-0.2,15.7-0.5
			s13.2,1.2,13.2,1.2s-0.8,8.6-0.9,8.9c0,0.1-0.7,5.9-0.6,6.3c-0.5,0.4-0.6,3.3-0.6,3.7c0,0.1-0.8,3.2-0.8,4.2
			c-6.3,0-13.8,0.2-15.8,0.7c-0.5,0.2-1.2,0.2-2.2,0.1c-0.9-0.1-7.1,0.6-7,0.5c0.1-0.1-4.5,0-4.5,0c0.5,0-8.2,0.4-8.7,0.1
			c0.1-0.1-5.4,0.6-5.5,0.5c-0.1-0.1-0.2-0.2-0.3-0.2s-0.2,0.1-0.4,0.3s-0.5,0.3-0.8,0.4c0,1.3,0.1,2.7,0.3,4.4
			c0.2,1.6,0.3,2.7,0.3,3.3c0,0.5,0,3.4,0,4c0.2,0.3,0.3,1.6,0.3,4l0.4,0.4c0.9-0.1,1.6,0,2.2,0.3c1.2,0.4,20.6-1.8,20.9-1.9l1-0.3
			c0.2-0.1,2.8,0.2,5.8-0.1c9.6-0.8,11.5,1.4,11.8,1.7l1.7,2.2l1.5,4.8c0,0.4,0.1,0.8,0.3,1.2s0.8,3.5,0.8,3.5
			c-0.1,0.5,0,1.1,0.3,1.9c0.3,0.8,0.4,1.4,0.4,2c0,4.5,1.3,13.9,1.3,16.9"/>
		<path id="XMLID_4097_" d="M563.5,107.9c0.3,1.8-0.4,7.5-0.4,12l-0.6,0.7c-1.7-0.5-14.3,0.3-15.3,0.4c-1,0.1-2.2,0.1-3.6,0.1
			c-1.4,0-2.5,0-3.3,0.1c-0.7,0-7.5-0.4-9.2-0.3c-1.7,0.1-4.5,0.3-6.6-0.1c-2.1-0.3-8.5,0-11.7-0.2c-3.3-0.2-13.8-0.8-13.8-0.8
			l-5,0.1c0,0-1.1-0.5-2.6-1.1c0,0,0.2-1,0-1.1l0.1-0.5c0,0,0.2-3.7,0-4c-0.2-0.5-0.1-1.1,0.1-1.9c0.2-0.8-0.9-7.6-0.6-8.9
			c0.3-1.3-0.1-6.7-0.1-6.9c0-0.6,0.1-1.2,0.4-1.6s16.2,0.5,16.6,0.9h2.8h0.4c0.9-0.3,2.9-0.3,4-0.1c1,0.2,3.3,0,4.9,0.1
			c1.6,0.1,2.7,0.2,3.4,0.1c1.2-0.2,3.4-0.2,6.5-0.1c3.1,0.1,5.3,0.1,6.4-0.1c0.2-0.3,0.3-0.7,0.4-1.4c0.3-0.6,0.4-2.3,0.3-5.1
			c-0.2-2.7-0.8-8.9-0.6-9l-0.5-0.4c-2.3,0.8-5.4,0.5-5.6,0.7c-0.4-0.2-1.4-0.3-2.9-0.2c-1.5,0-8.5,0.6-8.5,0.6h-1
			c0,0-3.7,0.1-4,0.1c-0.3,0-15.1,0.8-18.9-0.8c-1.9-4.3-3.2-9.7-3.2-14.8c0-2.9-0.1-4.9-0.4-6l0.1-2.6c-0.3-1.9-0.4-4.5-0.4-7.8
			c0.3-1.6,0.3-2.6,0.3-2.9c-0.5-3.4-0.3-17.2-0.1-24.3c0.1-2.5,4.6-5.6,6-4.9l1.9-0.1c0.1,0,12.8-0.2,13.3-0.3
			c0.2,0.4,2-0.3,2.7-0.1l1.7-0.1c0.4-0.1,0.9-0.1,1.4,0s1.3,0,1.3,0c3.1,0,8.5-0.6,9.8-0.6c1.4,0,2.7,0,4.1,0.1s14.7-0.2,15.7-0.5
			s12.2,1.2,12.2,1.2s-0.8,8.6-0.9,8.9c0,0.1-0.7,5.9-0.6,6.3c-0.5,0.4-0.6,3.3-0.6,3.7c0,0.1-0.8,3.2-0.8,4.2
			c-6.3,0-12.8,0.2-14.9,0.7c-0.5,0.2-1.2,0.2-2.2,0.1c-0.9-0.1-7.1,0.6-7,0.5s-4.5,0-4.5,0c0.5,0-8.2,0.4-8.7,0.1
			c0.1-0.1-5.4,0.6-5.5,0.5s-0.2-0.2-0.3-0.2s-0.2,0.1-0.4,0.3c-0.2,0.2-0.5,0.3-0.8,0.4c0,1.3,0.1,2.7,0.3,4.4
			c0.2,1.6,0.3,2.7,0.3,3.3c0,0.5,0,3.4,0,4c0.2,0.3,0.3,1.6,0.3,4l0.4,0.4c0.9-0.1,1.6,0,2.2,0.3c1.2,0.4,20.6-1.8,20.9-1.9l1-0.3
			c0.2-0.1,2.8,0.2,5.8-0.1c9.6-0.8,11.5,1.4,11.8,1.7l1.7,2.2l1.5,4.8c0,0.4,0.1,0.8,0.3,1.2c0.2,0.4,0.8,3.5,0.8,3.5
			c-0.1,0.5,0,1.1,0.3,1.9c0.3,0.8,0.4,1.4,0.4,2c0,4.5,1.3,13.9,1.3,16.9"/>
		<path id="XMLID_4032_" d="M403.1,118c-0.6-0.9-2.4-4.7-2.9-5.5c0,0-2.6-6.4-2.7-6.6c-0.1-0.3-1-2.5-1.1-2.7
			c-0.2-0.1-1.3-2.5-1.3-2.5s-0.4-1.1-0.5-1.2c-0.1-0.3-0.3-0.6-0.5-1.1c-0.3-0.5-0.4-0.8-0.4-1s-4.3-9.4-4.7-9.9
			c0,0,10.9-3.4,10.6-4.6c-0.3-1.1,0.9-22.4-0.2-30.4c0-0.2,0-3.5-0.1-4.7s-0.2-2.1-0.3-2.7c-0.2-0.8-0.3-13.7-0.5-21.7
			c-0.1-3.4-0.1-6-0.2-6.2c0,0-2.1-1.4-4.2-2.3c-2.1-0.8-20.2-0.6-21.4-0.9c-3.6,0.2-5.4,0.3-5.5,0.3c-0.3,0.1-0.7,0.1-1.1,0.1
			c-0.2,0.2-11.8-0.3-20.8-0.1c-3.3,0.1-11,0.3-16.6,0.4c-3.7,0.1-5.2,7.2-5.2,7.6c0,0-0.7,5.6-0.6,5.8s-0.2,7.2,0,7.2
			c0,0.1,0.2,5.2,0.6,8.5c0,1.2,0.7,13.2,0.6,15.6c-0.1,2.5-0.3,12.7-0.1,15.4c0.2,2.7,0,13.1,0.1,13.6c0.2,0.3,0.2,1.1,0.1,2.4
			c-0.1,1.3-0.2,2.1-0.2,2.3c-0.2,2.4-0.4,16.5-0.4,16.9c-0.2,3.2-0.3,10.9-0.1,11.1c0.3-0.2,4.3-0.7,4.7-0.5s0.7,0.3,1,0.2
			c0.2,0,7.4-1.2,7.6-0.2l8,0.7c0,0,4.5-1.3,5.2-1.8c0.2-1.5,0.2-11.4,0.2-15.4c0-4.1,0.1-6.6,0.4-7.7l-0.1-1
			c-0.1-0.7-0.1-1.2,0-1.4c-0.3-1.6-0.2-2.9,0.1-3.7c0.3-0.2,4.6,0,6.4,0.4c0.3,0.2,2.7,4.2,2.7,4.2c0.3,0.4,0.7,1.1,1.1,2.1
			c0.4,1.1,0.7,1.8,1,2.3c0,0,0.3,0.6,0.4,0.8c1.5,2.7,2.3,4.2,2.4,4.2c0,0,2.8,5.3,4.8,9.3c0.4,0.8,0.7,1.4,0.9,1.7
			c0.5,1.2,1.8,4.4,1.9,4.8c0,0.1,1.3,0.4,1.3,0.4c0.3-0.2,5.5,0.1,5.7,0.1c0.2,0,3.7-0.3,5.9-0.2c1,0.1,3.1,0.5,5.1,0.5
			c3.4,0,9.9-0.4,13-0.6L403.1,118z M350.5,64.3c-0.2-1.4,0.1-11.2,0-12.3l0.6-8.4c0.9,0,2.3,0,4.4,0.1c2.1,0,6.6-0.1,6.8-0.1
			c4-0.6,7.7-0.8,9.7-0.5c0,4.8-0.3,8.8,0.7,11.8c0,0,0.1,3.3,0.4,4.8c0.3,1.5,0.3,2.4,0.3,2.7v1.2
			C367.8,64.5,360.1,64.7,350.5,64.3z"/>
		<path id="XMLID_4117_" d="M647.5,18.3c0.4-0.3,3.9-1.8,4.7-1.9c3-0.3,8.9-0.9,9.4-0.8c0,0,6.8-0.6,9.9-0.9s23.9-0.6,24.4-0.5
			c0.5,0.2,1.4,0.3,2.6,0.2c1.2,0,5.1-0.1,5.1-0.1c0.2,0.1,13.4,0.6,14.2,0.5c0.8-0.1,11.2,0.9,11.2,0.9l2.4,0.3
			c0.7,0.1,1.4,0.1,2.1,0c0.3-0.1,0.9,0.2,1.6,0.6c1.1,0.6,1.9,2.4,1.9,3c0,0.4-0.1,0.7-0.1,1.1c0,1.1,0,1.9-0.1,2.3
			c-0.2,0.5-0.5,5-0.5,5.1c-0.2,0.7-0.4,1.8-0.6,3.2c-0.3,1.4-1,10-0.8,10.6s-0.6,6.1-0.5,6.9c0,0.9-0.4,26.5-0.4,30
			c0,0.5,1.2,16.2,1.5,19.7c0.2,1.1,0.3,3.1,0.3,5.9c0,2.8-0.1,6.5-0.8,8.2c-0.7,1.7-0.5,3.5-0.5,3.5c0,0.7-0.3,0.6-0.8,2.6
			c-0.6,2-1,3-1.5,3.1l-0.4,0.1l-6.1-0.7c-0.3-0.2-0.6-0.2-0.9-0.1c-0.3,0.1-0.7,0-1.1-0.1c-0.1-0.1-10.2-0.3-10.7-0.5
			c-0.5-0.1-0.9-0.2-1.3-0.4c-2.5-0.7-4.6-1.2-4.7-1.2l-0.1-0.7c-0.1-0.5-0.2-0.8-0.3-0.8c0-5.8,0.3-7.7,0.8-8.8
			c0.3-1.5,0.6-3.7,0.6-6.7c0.1-3,0-5.3-0.1-6.7c-3.2,0.3-8.4-0.1-15.6-1.1c-0.7-0.1-2.2,0-4.5,0.3c-2.3,0.3-8.3,0-13.3-1
			c-0.2,0.6-0.1,1.4,0.1,2.3c0.2,0.9,0.3,1.6,0.3,2.2c-0.2,0.4-0.2,1.7-0.1,3.9c0.1,2.2,0.2,10.2,0.2,10.2c-0.2,0.6-0.3,1.8-0.3,3.5
			s-0.3,2.9-0.8,3.5c-0.6,0.6-3.1,0.5-3.3,0.5l-0.5,0.1c-0.3,0-0.7,0-1.1,0.1s-0.8,0.2-1,0.4c0,0-4.3-0.1-5.5,0.1
			c-1.2,0.1-3.3,0.2-3.3,0.2h-0.3c-0.1,0.2-0.3,0.2-0.5,0.1c0,0-8.2,0.6-8.7,0c-0.8-0.3-1.1-2.8-1.1-7.7c0-0.3,0-1.2-0.1-2.9
			c0-1.6-0.1-2.6-0.1-2.9c-0.1-0.1-0.2-0.6-0.3-1.5c-0.1-0.9-0.2-1.6-0.4-1.9c-0.1-0.5-0.1-1.1-0.1-1.6s0-1.2,0.1-2.1
			c0.1-0.8,0.1-1.3,0.1-1.5c0-0.5-0.1-1.8-0.3-3.7c-0.2-1.9-0.2-3.4-0.1-4.4c0.2-0.7,0.2-2,0.2-3.9s-0.1-3-0.1-3.5
			c0-0.4,0.1-1.1,0.4-2.1s0.4-1.6,0.4-1.8c0.2-0.5,0.5-10.1,0.6-10.6c0,0,0.9-6.8,0.9-7.1c0.6-7.9,0.1-14.7,0.1-14.7
			c-0.1-0.4-0.1-0.8-0.1-1.3C650,45.2,647.1,18.6,647.5,18.3z M677.5,66.2c0,1,0.1,1.6,0.4,1.6c0.3,0.4,1.3,0.6,2.9,0.8
			c1.6,0.1,2.5,0.3,2.7,0.3c1.3,0.4,3.4,0.6,6.4,0.8c3,0.1,5.1,0.3,6.5,0.6c0.6,0.1,1.5,0.1,2.7,0c1.2-0.1,7.2,0.4,7.8-1.1
			c0.3-0.5-0.2-4.7-0.1-5.1c0.5-2.7,0.8-5.1,0.8-7c0-0.3-0.4-10.9-0.9-15.1c-1.6-0.2-4.9-0.4-5.6-0.3c0,0-5.4,0-6.2-0.1
			c-0.8-0.2-7.4-0.3-9.4,0.3c-0.6-0.5-4,0.1-6.4,0.3c0,0.2-0.1,0.9-0.2,2.3c-0.1,1.3-0.2,2.4-0.3,3.2c0,0.8,0,6.5-0.3,10.8
			C678.1,62.6,677.9,65.3,677.5,66.2z"/>
	</g>
</g>
</svg>
