<?xml version="1.0" encoding="utf-8"?>
<!-- Generator: Adobe Illustrator 19.0.0, SVG Export Plug-In . SVG Version: 6.00 Build 0)  -->
<svg version="1.1" id="Camada_1" xmlns="http://www.w3.org/2000/svg" xmlns:xlink="http://www.w3.org/1999/xlink" x="0px" y="0px"
	 viewBox="1 -5 26 26" style="enable-background:new 1 -5 26 26;" xml:space="preserve">
<path d="M14,9.1c3.8,0,6.9-3.1,6.9-6.9S17.8-4.6,14-4.6S7.1-1.5,7.1,2.3S10.2,9.1,14,9.1z M18.8,9.9h-0.9c-1.2,0.5-2.5,0.8-3.9,0.8
	s-2.7-0.3-3.9-0.8H9.2c-4,0-7.2,2.9-7.2,6.4v2c0,1.3,1.2,2.3,2.6,2.3h18.9c1.4,0,2.6-1,2.6-2.3v-2C26,12.8,22.8,9.9,18.8,9.9z"/>
</svg>
