<?xml version="1.0" encoding="utf-8"?>
<!-- Generator: Adobe Illustrator 19.0.0, SVG Export Plug-In . SVG Version: 6.00 Build 0)  -->
<svg version="1.1" id="Camada_1" xmlns="http://www.w3.org/2000/svg" xmlns:xlink="http://www.w3.org/1999/xlink" x="0px" y="0px"
	 viewBox="0 0 23 16" style="enable-background:new 0 0 23 16;" xml:space="preserve">
<style type="text/css">
	.st0{fill:#FFFFFF;}
</style>
<g id="XMLID_19_">
	<g id="XMLID_68_">
		<rect id="XMLID_18_" class="st0" width="2" height="16"/>
		<rect id="XMLID_17_" x="21" class="st0" width="2" height="16"/>
		<rect id="XMLID_16_" x="4.2" class="st0" width="0.7" height="13"/>
		<rect id="XMLID_15_" x="7.7" class="st0" width="0.6" height="13"/>
		<rect id="XMLID_14_" x="10.3" class="st0" width="2.5" height="13"/>
		<rect id="XMLID_13_" x="14.5" class="st0" width="0.9" height="13"/>
		<rect id="XMLID_12_" x="17.9" class="st0" width="1.2" height="13"/>
	</g>
	<g id="XMLID_20_">
		<g id="XMLID_21_">
			<g id="XMLID_59_">
				<g id="XMLID_60_">
					<g id="XMLID_61_">
						<g id="XMLID_62_">
							<g id="XMLID_63_">
								<g id="XMLID_64_">
									<g id="XMLID_65_">
										<path id="XMLID_66_" class="st0" d="M4.1,15.7h0.4v-1.6v-0.2L4.4,14l-0.4,0.3L4,14.1l0.7-0.6h0.1v2.2h0.4V16H4.1V15.7z"/>
									</g>
								</g>
							</g>
						</g>
					</g>
				</g>
			</g>
			<g id="XMLID_50_">
				<g id="XMLID_51_">
					<g id="XMLID_52_">
						<g id="XMLID_53_">
							<g id="XMLID_54_">
								<g id="XMLID_55_">
									<g id="XMLID_56_">
										<path id="XMLID_57_" class="st0" d="M8.7,14.1c0,0.1,0,0.2-0.1,0.4c0,0.1-0.1,0.3-0.2,0.4s-0.2,0.2-0.2,0.4
											c-0.1,0.1-0.2,0.2-0.3,0.3l-0.2,0.1l0,0H8h0.6V16H7.5v-0.1c0.1-0.1,0.1-0.1,0.2-0.2c0.1-0.1,0.1-0.2,0.2-0.3
											C8,15.3,8,15.2,8,15.1c0.1-0.1,0.1-0.2,0.2-0.3c0.1-0.1,0.1-0.2,0.1-0.3c0-0.1,0.1-0.2,0.1-0.3s0-0.2-0.1-0.3
											c-0.1-0.1-0.2-0.1-0.3-0.1c-0.1,0-0.2,0-0.3,0.1c-0.1,0-0.2,0.1-0.2,0.1l-0.1-0.2c0.1-0.1,0.2-0.1,0.3-0.2
											c0.1,0,0.2-0.1,0.4-0.1c0.1,0,0.2,0,0.3,0c0.1,0,0.1,0.1,0.2,0.1c0.1,0.1,0.1,0.1,0.1,0.2C8.7,14,8.7,14,8.7,14.1z"/>
									</g>
								</g>
							</g>
						</g>
					</g>
				</g>
			</g>
			<g id="XMLID_41_">
				<g id="XMLID_42_">
					<g id="XMLID_43_">
						<g id="XMLID_44_">
							<g id="XMLID_45_">
								<g id="XMLID_46_">
									<g id="XMLID_47_">
										<path id="XMLID_48_" class="st0" d="M11.5,15.8c0.1,0,0.1,0,0.2,0c0.1,0,0.1-0.1,0.2-0.1c0,0,0.1-0.1,0.1-0.2s0-0.1,0-0.2
											c0-0.2,0-0.3-0.1-0.4s-0.2-0.1-0.4-0.1h-0.3v-0.1l0.4-0.8l0.2-0.1h-0.2h-0.6v-0.3h1.1v0.1l-0.4,0.8l-0.1,0.1l0,0h0.1
											c0.1,0,0.2,0,0.3,0s0.1,0.1,0.2,0.1c0.1,0.1,0.1,0.1,0.1,0.2s0,0.2,0,0.3s0,0.2-0.1,0.3c-0.1,0.1-0.1,0.2-0.2,0.2
											c-0.1,0.1-0.2,0.1-0.3,0.1c0,0.3-0.1,0.3-0.2,0.3s-0.2,0-0.3,0s-0.2,0-0.2-0.1l0.1-0.2c0.1,0,0.1,0,0.2,0.1
											C11.3,15.8,11.4,15.8,11.5,15.8z"/>
									</g>
								</g>
							</g>
						</g>
					</g>
				</g>
			</g>
			<g id="XMLID_31_">
				<g id="XMLID_32_">
					<g id="XMLID_33_">
						<g id="XMLID_34_">
							<g id="XMLID_35_">
								<g id="XMLID_36_">
									<g id="XMLID_37_">
										<path id="XMLID_38_" class="st0" d="M15.9,15.2h-0.4V16h-0.3v-0.7h-1v-0.1l1-1.6h0.2V15h0.4V15.2z M15.3,14.3V14l0,0V14.3
											l-0.5,0.6L14.7,15h0.2h0.4C15.3,15,15.3,14.3,15.3,14.3z"/>
									</g>
								</g>
							</g>
						</g>
					</g>
				</g>
			</g>
			<g id="XMLID_22_">
				<g id="XMLID_23_">
					<g id="XMLID_24_">
						<g id="XMLID_25_">
							<g id="XMLID_26_">
								<g id="XMLID_27_">
									<g id="XMLID_28_">
										<path id="XMLID_29_" class="st0" d="M18.2,15.8c0.2,0,0.3,0,0.4-0.1c0.1-0.1,0.2-0.2,0.2-0.4c0-0.2-0.1-0.3-0.2-0.4
											c-0.1-0.1-0.2-0.1-0.4-0.1H18v-1.2h1v0.3h-0.7v0.7h0.1c0.2,0,0.4,0.1,0.4,0.2c0.1,0.1,0.2,0.3,0.2,0.5
											c0,0.1,0,0.2-0.1,0.3c0,0.1-0.1,0.2-0.2,0.2c-0.1,0.1-0.2,0.1-0.3,0.1c-0.1,0-0.2,0.1-0.3,0.1s-0.2,0-0.3,0
											s-0.1,0-0.2-0.1l0.1-0.2c0.1,0,0.1,0,0.2,0C18.1,15.8,18.1,15.8,18.2,15.8z"/>
									</g>
								</g>
							</g>
						</g>
					</g>
				</g>
			</g>
		</g>
	</g>
</g>
</svg>
