<?xml version="1.0" encoding="utf-8"?>
<!-- Generator: Adobe Illustrator 19.0.0, SVG Export Plug-In . SVG Version: 6.00 Build 0)  -->
<svg version="1.1" id="Camada_1" xmlns="http://www.w3.org/2000/svg" xmlns:xlink="http://www.w3.org/1999/xlink" x="0px" y="0px"
	 viewBox="0 0 23 16" style="enable-background:new 0 0 23 16;" xml:space="preserve">
<style type="text/css">
	.st0{fill:#FFFFFF;}
</style>
<g>
	<g>
		<path class="st0" d="M19.1,10.8c-1.2,0-2.2,1.2-2.2,2.6s1,2.6,2.2,2.6s2.2-1.2,2.2-2.6S20.3,10.8,19.1,10.8z M19.1,14.4
			c-0.5,0-0.9-0.5-0.9-1c0-0.5,0.4-1,0.9-1s0.9,0.5,0.9,1C19.9,14,19.5,14.4,19.1,14.4z"/>
	</g>
	<polygon id="XMLID_30_" class="st0" points="15.1,5.1 15.1,7.6 17.9,7.6 16.8,5.1 	"/>
	<g>
		<g>
			<path class="st0" d="M8.3,10.8c-1.2,0-2.2,1.2-2.2,2.6s1,2.6,2.2,2.6s2.2-1.2,2.2-2.6C10.5,12,9.5,10.8,8.3,10.8z M8.3,14.4
				c-0.5,0-0.9-0.5-0.9-1c0-0.5,0.4-1,0.9-1s0.9,0.4,0.9,1C9.2,14,8.8,14.4,8.3,14.4z"/>
		</g>
	</g>
	<polygon id="XMLID_9_" class="st0" points="15.1,5.1 15.1,7.6 17.9,7.6 16.8,5.1 	"/>
	<g>
		<polygon id="XMLID_8_" class="st0" points="15.1,5.1 15.1,7.6 17.9,7.6 16.8,5.1 		"/>
		<path class="st0" d="M22.6,9.2l-3.6-1.6L17.6,4l-3.4,0V1.4c0-0.4-0.1-0.7-0.4-1S13.4,0,13.1,0H3.8C3.4,0,3.1,0.2,2.9,0.4
			C2.7,0.6,2.6,0.9,2.5,1.3c0,0,0,0,0,0.1v1.4H5c0.4,0,0.7,0.4,0.7,0.8S5.4,4.4,5,4.4H2.5v0.4H5c0.4,0,0.7,0.4,0.7,0.8
			c0,0.5-0.3,0.8-0.7,0.8H2.5v0.4H5c0.5,0,0.9,0.4,0.9,0.8S5.5,8.5,5,8.5H2.5v4.1c0,0.4,0.1,0.8,0.4,1c0.2,0.3,0.5,0.4,0.9,0.4h1.8
			c0-0.2-0.1-0.4-0.1-0.7c0-1.8,1.3-3.2,2.8-3.2s2.8,1.4,2.8,3.2c0,0.2,0,0.5-0.1,0.7h0.7h0H14c0.2,0,0.3-0.2,0.3-0.4v-0.4h2
			c0.1-4,5.1-4.5,5.6,0H23L22.6,9.2z M15.1,7.6V5.1l1.7,0l1.1,2.5H15.1z"/>
	</g>
	<g>
		<path id="XMLID_3_" class="st0" d="M0.5,8.1C0.2,8.1,0,7.9,0,7.7c0-0.2,0.2-0.4,0.5-0.4H5c0.3,0,0.5,0.2,0.5,0.4
			c0,0.2-0.2,0.4-0.5,0.4H0.5L0.5,8.1z"/>
	</g>
	<g>
		<path id="XMLID_2_" class="st0" d="M1.5,6C1.3,6,1.1,5.9,1.1,5.6c0-0.2,0.2-0.4,0.4-0.4H5c0.2,0,0.4,0.2,0.4,0.4
			C5.3,5.9,5.2,6,5,6H1.5L1.5,6z"/>
	</g>
	<g>
		<path id="XMLID_1_" class="st0" d="M2,3.9c-0.2,0-0.4-0.2-0.4-0.4c0-0.2,0.2-0.4,0.4-0.4h3c0.2,0,0.4,0.2,0.4,0.4
			c0,0.2-0.2,0.4-0.4,0.4H2L2,3.9z"/>
	</g>
</g>
</svg>
